<mxfile host="app.diagrams.net" modified="2024-04-24T08:49:03.516Z" agent="Mozilla/5.0 (Windows NT 10.0; Win64; x64) AppleWebKit/537.36 (KHTML, like Gecko) Chrome/124.0.0.0 Safari/537.36" etag="Ke0nS4_dsb8oTpr-5A_o" version="24.2.8" type="github">
  <diagram name="Page-1" id="RJ0OyywHCPiTlX7hDfI7">
    <mxGraphModel dx="1050" dy="557" grid="0" gridSize="10" guides="1" tooltips="1" connect="1" arrows="1" fold="1" page="1" pageScale="1" pageWidth="827" pageHeight="1169" math="0" shadow="0">
      <root>
        <mxCell id="0" />
        <mxCell id="1" parent="0" />
        <mxCell id="dT6RQ6lJ1hllBTWCgssA-20" value="" style="rounded=1;whiteSpace=wrap;html=1;hachureGap=4;strokeColor=default;align=center;verticalAlign=middle;fontFamily=Architects Daughter;fontSource=https%3A%2F%2Ffonts.googleapis.com%2Fcss%3Ffamily%3DArchitects%2BDaughter;fontSize=12;fontColor=default;labelBackgroundColor=default;fillColor=default;" vertex="1" parent="1">
          <mxGeometry x="30" y="124" width="70" height="134" as="geometry" />
        </mxCell>
        <mxCell id="dT6RQ6lJ1hllBTWCgssA-1" value="" style="points=[[0.35,0,0],[0.98,0.51,0],[1,0.71,0],[0.67,1,0],[0,0.795,0],[0,0.65,0]];verticalLabelPosition=bottom;sketch=0;html=1;verticalAlign=top;aspect=fixed;align=center;pointerEvents=1;shape=mxgraph.cisco19.user;fillColor=#d80073;strokeColor=#A50040;hachureGap=4;jiggle=2;curveFitting=1;fontFamily=Architects Daughter;fontSource=https%3A%2F%2Ffonts.googleapis.com%2Fcss%3Ffamily%3DArchitects%2BDaughter;fontColor=#ffffff;" vertex="1" parent="1">
          <mxGeometry x="42" y="190" width="50" height="50" as="geometry" />
        </mxCell>
        <mxCell id="dT6RQ6lJ1hllBTWCgssA-2" value="" style="sketch=0;pointerEvents=1;shadow=0;dashed=0;html=1;strokeColor=#6c8ebf;fillColor=#dae8fc;labelPosition=center;verticalLabelPosition=bottom;verticalAlign=top;outlineConnect=0;align=center;shape=mxgraph.office.users.mobile_user;hachureGap=4;jiggle=2;curveFitting=1;fontFamily=Architects Daughter;fontSource=https%3A%2F%2Ffonts.googleapis.com%2Fcss%3Ffamily%3DArchitects%2BDaughter;fillStyle=solid;gradientColor=#7ea6e0;" vertex="1" parent="1">
          <mxGeometry x="38" y="136" width="50" height="40" as="geometry" />
        </mxCell>
        <mxCell id="dT6RQ6lJ1hllBTWCgssA-5" value="" style="endArrow=classic;startArrow=classic;html=1;rounded=0;hachureGap=4;fontFamily=Architects Daughter;fontSource=https%3A%2F%2Ffonts.googleapis.com%2Fcss%3Ffamily%3DArchitects%2BDaughter;flowAnimation=1;entryX=-0.02;entryY=0.193;entryDx=0;entryDy=0;entryPerimeter=0;" edge="1" parent="1">
          <mxGeometry width="50" height="50" relative="1" as="geometry">
            <mxPoint x="100" y="220" as="sourcePoint" />
            <mxPoint x="159" y="219.5" as="targetPoint" />
          </mxGeometry>
        </mxCell>
        <mxCell id="dT6RQ6lJ1hllBTWCgssA-6" value="" style="endArrow=classic;startArrow=classic;html=1;rounded=0;hachureGap=4;fontFamily=Architects Daughter;fontSource=https%3A%2F%2Ffonts.googleapis.com%2Fcss%3Ffamily%3DArchitects%2BDaughter;flowAnimation=1;entryX=-0.02;entryY=0.193;entryDx=0;entryDy=0;entryPerimeter=0;" edge="1" parent="1">
          <mxGeometry width="50" height="50" relative="1" as="geometry">
            <mxPoint x="100" y="165" as="sourcePoint" />
            <mxPoint x="159" y="164.5" as="targetPoint" />
          </mxGeometry>
        </mxCell>
        <mxCell id="dT6RQ6lJ1hllBTWCgssA-7" value="&lt;font face=&quot;Verdana&quot;&gt;CDN&lt;/font&gt;" style="rounded=1;whiteSpace=wrap;html=1;hachureGap=4;fontFamily=Architects Daughter;fontSource=https%3A%2F%2Ffonts.googleapis.com%2Fcss%3Ffamily%3DArchitects%2BDaughter;" vertex="1" parent="1">
          <mxGeometry x="260" y="80" width="100" height="40" as="geometry" />
        </mxCell>
        <mxCell id="dT6RQ6lJ1hllBTWCgssA-9" value="&lt;font face=&quot;Verdana&quot;&gt;Static Contents&lt;/font&gt;" style="rounded=1;whiteSpace=wrap;html=1;hachureGap=4;strokeColor=default;align=center;verticalAlign=middle;fontFamily=Architects Daughter;fontSource=https%3A%2F%2Ffonts.googleapis.com%2Fcss%3Ffamily%3DArchitects%2BDaughter;fontSize=12;fontColor=default;labelBackgroundColor=default;fillColor=default;" vertex="1" parent="1">
          <mxGeometry x="408" y="80" width="122" height="40" as="geometry" />
        </mxCell>
        <mxCell id="dT6RQ6lJ1hllBTWCgssA-10" value="" style="endArrow=none;startArrow=classic;html=1;rounded=0;hachureGap=4;strokeColor=default;align=center;verticalAlign=middle;fontFamily=Architects Daughter;fontSource=https%3A%2F%2Ffonts.googleapis.com%2Fcss%3Ffamily%3DArchitects%2BDaughter;fontSize=12;fontColor=default;labelBackgroundColor=default;flowAnimation=1;endFill=0;" edge="1" parent="1">
          <mxGeometry width="50" height="50" relative="1" as="geometry">
            <mxPoint x="361" y="100" as="sourcePoint" />
            <mxPoint x="407" y="99.5" as="targetPoint" />
          </mxGeometry>
        </mxCell>
        <mxCell id="dT6RQ6lJ1hllBTWCgssA-16" value="" style="endArrow=classic;startArrow=classic;html=1;rounded=0;hachureGap=4;strokeColor=default;align=center;verticalAlign=middle;fontFamily=Architects Daughter;fontSource=https%3A%2F%2Ffonts.googleapis.com%2Fcss%3Ffamily%3DArchitects%2BDaughter;fontSize=12;fontColor=default;labelBackgroundColor=default;flowAnimation=1;" edge="1" parent="1">
          <mxGeometry width="50" height="50" relative="1" as="geometry">
            <mxPoint x="240" y="190" as="sourcePoint" />
            <mxPoint x="290" y="190" as="targetPoint" />
          </mxGeometry>
        </mxCell>
        <mxCell id="dT6RQ6lJ1hllBTWCgssA-18" value="&lt;font face=&quot;Verdana&quot;&gt;Load balancer&lt;/font&gt;" style="rhombus;whiteSpace=wrap;html=1;rounded=1;hachureGap=4;strokeColor=default;align=center;verticalAlign=middle;fontFamily=Architects Daughter;fontSource=https%3A%2F%2Ffonts.googleapis.com%2Fcss%3Ffamily%3DArchitects%2BDaughter;fontSize=12;fontColor=default;labelBackgroundColor=default;fillColor=default;" vertex="1" parent="1">
          <mxGeometry x="130" y="144" width="110" height="90" as="geometry" />
        </mxCell>
        <mxCell id="dT6RQ6lJ1hllBTWCgssA-3" value="" style="rounded=1;whiteSpace=wrap;html=1;hachureGap=4;fontFamily=Architects Daughter;fontSource=https%3A%2F%2Ffonts.googleapis.com%2Fcss%3Ffamily%3DArchitects%2BDaughter;rotation=90;" vertex="1" parent="1">
          <mxGeometry x="350" y="100" width="79" height="190" as="geometry" />
        </mxCell>
        <mxCell id="dT6RQ6lJ1hllBTWCgssA-13" value="&lt;font face=&quot;Verdana&quot;&gt;API Gateway 1&lt;/font&gt;" style="rounded=1;whiteSpace=wrap;html=1;hachureGap=4;strokeColor=default;align=center;verticalAlign=middle;fontFamily=Architects Daughter;fontSource=https%3A%2F%2Ffonts.googleapis.com%2Fcss%3Ffamily%3DArchitects%2BDaughter;fontSize=12;fontColor=default;labelBackgroundColor=default;fillColor=default;" vertex="1" parent="1">
          <mxGeometry x="310" y="165" width="70" height="60" as="geometry" />
        </mxCell>
        <mxCell id="dT6RQ6lJ1hllBTWCgssA-14" value="&lt;font face=&quot;Verdana&quot;&gt;API Gateway 2&lt;/font&gt;" style="rounded=1;whiteSpace=wrap;html=1;hachureGap=4;strokeColor=default;align=center;verticalAlign=middle;fontFamily=Architects Daughter;fontSource=https%3A%2F%2Ffonts.googleapis.com%2Fcss%3Ffamily%3DArchitects%2BDaughter;fontSize=12;fontColor=default;labelBackgroundColor=default;fillColor=default;" vertex="1" parent="1">
          <mxGeometry x="400" y="165" width="70" height="60" as="geometry" />
        </mxCell>
        <mxCell id="dT6RQ6lJ1hllBTWCgssA-24" value="" style="endArrow=classic;html=1;rounded=1;hachureGap=4;strokeColor=default;align=center;verticalAlign=middle;fontFamily=Architects Daughter;fontSource=https%3A%2F%2Ffonts.googleapis.com%2Fcss%3Ffamily%3DArchitects%2BDaughter;fontSize=12;fontColor=default;labelBackgroundColor=default;flowAnimation=1;curved=0;" edge="1" parent="1">
          <mxGeometry width="50" height="50" relative="1" as="geometry">
            <mxPoint x="260" y="100" as="sourcePoint" />
            <mxPoint x="62.5" y="125" as="targetPoint" />
            <Array as="points">
              <mxPoint x="63" y="100" />
            </Array>
          </mxGeometry>
        </mxCell>
        <mxCell id="dT6RQ6lJ1hllBTWCgssA-28" value="" style="group" vertex="1" connectable="0" parent="1">
          <mxGeometry x="345" y="276" width="110" height="54" as="geometry" />
        </mxCell>
        <mxCell id="dT6RQ6lJ1hllBTWCgssA-25" value="" style="rounded=1;whiteSpace=wrap;html=1;hachureGap=4;strokeColor=default;align=center;verticalAlign=middle;fontFamily=Architects Daughter;fontSource=https%3A%2F%2Ffonts.googleapis.com%2Fcss%3Ffamily%3DArchitects%2BDaughter;fontSize=12;fontColor=default;labelBackgroundColor=default;fillColor=default;" vertex="1" parent="dT6RQ6lJ1hllBTWCgssA-28">
          <mxGeometry width="88" height="40.5" as="geometry" />
        </mxCell>
        <mxCell id="dT6RQ6lJ1hllBTWCgssA-26" value="" style="rounded=1;whiteSpace=wrap;html=1;hachureGap=4;strokeColor=default;align=center;verticalAlign=middle;fontFamily=Architects Daughter;fontSource=https%3A%2F%2Ffonts.googleapis.com%2Fcss%3Ffamily%3DArchitects%2BDaughter;fontSize=12;fontColor=default;labelBackgroundColor=default;fillColor=default;" vertex="1" parent="dT6RQ6lJ1hllBTWCgssA-28">
          <mxGeometry x="10.266666666666666" y="6.75" width="92.4" height="40.5" as="geometry" />
        </mxCell>
        <mxCell id="dT6RQ6lJ1hllBTWCgssA-27" value="&lt;font face=&quot;Verdana&quot;&gt;Metadata Server&lt;/font&gt;" style="rounded=1;whiteSpace=wrap;html=1;hachureGap=4;strokeColor=default;align=center;verticalAlign=middle;fontFamily=Architects Daughter;fontSource=https%3A%2F%2Ffonts.googleapis.com%2Fcss%3Ffamily%3DArchitects%2BDaughter;fontSize=12;fontColor=default;labelBackgroundColor=default;fillColor=default;" vertex="1" parent="dT6RQ6lJ1hllBTWCgssA-28">
          <mxGeometry x="17.6" y="13.5" width="92.4" height="40.5" as="geometry" />
        </mxCell>
        <mxCell id="dT6RQ6lJ1hllBTWCgssA-29" value="" style="endArrow=classic;html=1;rounded=0;hachureGap=4;strokeColor=default;align=center;verticalAlign=middle;fontFamily=Architects Daughter;fontSource=https%3A%2F%2Ffonts.googleapis.com%2Fcss%3Ffamily%3DArchitects%2BDaughter;fontSize=12;fontColor=default;labelBackgroundColor=default;flowAnimation=1;" edge="1" parent="1">
          <mxGeometry width="50" height="50" relative="1" as="geometry">
            <mxPoint x="394.5" y="235" as="sourcePoint" />
            <mxPoint x="394.5" y="275" as="targetPoint" />
          </mxGeometry>
        </mxCell>
        <mxCell id="dT6RQ6lJ1hllBTWCgssA-36" value="" style="group" vertex="1" connectable="0" parent="1">
          <mxGeometry x="173" y="375" width="130" height="80" as="geometry" />
        </mxCell>
        <mxCell id="dT6RQ6lJ1hllBTWCgssA-34" value="" style="shadow=0;dashed=0;html=1;labelPosition=center;verticalLabelPosition=bottom;verticalAlign=top;align=center;outlineConnect=0;shape=mxgraph.veeam.3d.medium_datastore;rounded=1;hachureGap=4;strokeColor=default;fontFamily=Architects Daughter;fontSource=https%3A%2F%2Ffonts.googleapis.com%2Fcss%3Ffamily%3DArchitects%2BDaughter;fontSize=12;labelBackgroundColor=default;fillColor=#0000CC;rotation=-90;" vertex="1" parent="dT6RQ6lJ1hllBTWCgssA-36">
          <mxGeometry x="43" y="-41.5" width="44" height="127" as="geometry" />
        </mxCell>
        <mxCell id="dT6RQ6lJ1hllBTWCgssA-35" value="&lt;font face=&quot;Verdana&quot;&gt;Notification Queue&lt;br&gt;(Kafka)&lt;/font&gt;" style="text;html=1;align=center;verticalAlign=middle;resizable=0;points=[];autosize=1;strokeColor=none;fillColor=none;fontFamily=Architects Daughter;fontSource=https%3A%2F%2Ffonts.googleapis.com%2Fcss%3Ffamily%3DArchitects%2BDaughter;fontSize=12;fontColor=default;labelBackgroundColor=default;" vertex="1" parent="dT6RQ6lJ1hllBTWCgssA-36">
          <mxGeometry y="30" width="130" height="50" as="geometry" />
        </mxCell>
        <mxCell id="dT6RQ6lJ1hllBTWCgssA-37" value="&lt;font face=&quot;Verdana&quot;&gt;Notification&amp;nbsp;&lt;/font&gt;&lt;div&gt;&lt;font face=&quot;Verdana&quot;&gt;Service&lt;/font&gt;&lt;/div&gt;" style="rounded=1;whiteSpace=wrap;html=1;hachureGap=4;strokeColor=default;align=center;verticalAlign=middle;fontFamily=Architects Daughter;fontSource=https%3A%2F%2Ffonts.googleapis.com%2Fcss%3Ffamily%3DArchitects%2BDaughter;fontSize=12;fontColor=default;labelBackgroundColor=default;fillColor=default;" vertex="1" parent="1">
          <mxGeometry x="164" y="280" width="120" height="50" as="geometry" />
        </mxCell>
        <mxCell id="dT6RQ6lJ1hllBTWCgssA-38" value="" style="endArrow=classic;html=1;rounded=0;hachureGap=4;strokeColor=default;align=center;verticalAlign=middle;fontFamily=Architects Daughter;fontSource=https%3A%2F%2Ffonts.googleapis.com%2Fcss%3Ffamily%3DArchitects%2BDaughter;fontSize=12;fontColor=default;labelBackgroundColor=default;flowAnimation=1;" edge="1" parent="1">
          <mxGeometry width="50" height="50" relative="1" as="geometry">
            <mxPoint x="350" y="330" as="sourcePoint" />
            <mxPoint x="300" y="380" as="targetPoint" />
          </mxGeometry>
        </mxCell>
        <mxCell id="dT6RQ6lJ1hllBTWCgssA-39" value="" style="endArrow=classic;html=1;rounded=0;hachureGap=4;strokeColor=default;align=center;verticalAlign=middle;fontFamily=Architects Daughter;fontSource=https%3A%2F%2Ffonts.googleapis.com%2Fcss%3Ffamily%3DArchitects%2BDaughter;fontSize=12;fontColor=default;labelBackgroundColor=default;flowAnimation=1;" edge="1" parent="1">
          <mxGeometry width="50" height="50" relative="1" as="geometry">
            <mxPoint x="231.5" y="372" as="sourcePoint" />
            <mxPoint x="231.5" y="332" as="targetPoint" />
          </mxGeometry>
        </mxCell>
        <mxCell id="dT6RQ6lJ1hllBTWCgssA-40" value="" style="endArrow=classic;html=1;rounded=0;hachureGap=4;strokeColor=default;align=center;verticalAlign=middle;fontFamily=Architects Daughter;fontSource=https%3A%2F%2Ffonts.googleapis.com%2Fcss%3Ffamily%3DArchitects%2BDaughter;fontSize=12;fontColor=default;labelBackgroundColor=default;flowAnimation=1;curved=1;" edge="1" parent="1">
          <mxGeometry width="50" height="50" relative="1" as="geometry">
            <mxPoint x="160" y="303" as="sourcePoint" />
            <mxPoint x="67" y="260" as="targetPoint" />
            <Array as="points">
              <mxPoint x="67" y="303" />
            </Array>
          </mxGeometry>
        </mxCell>
        <mxCell id="dT6RQ6lJ1hllBTWCgssA-41" value="" style="endArrow=classic;html=1;rounded=0;hachureGap=4;strokeColor=default;align=center;verticalAlign=middle;fontFamily=Architects Daughter;fontSource=https%3A%2F%2Ffonts.googleapis.com%2Fcss%3Ffamily%3DArchitects%2BDaughter;fontSize=12;fontColor=default;labelBackgroundColor=default;flowAnimation=1;" edge="1" parent="1">
          <mxGeometry width="50" height="50" relative="1" as="geometry">
            <mxPoint x="410" y="332" as="sourcePoint" />
            <mxPoint x="410" y="370" as="targetPoint" />
          </mxGeometry>
        </mxCell>
        <mxCell id="dT6RQ6lJ1hllBTWCgssA-42" value="&lt;font face=&quot;Verdana&quot;&gt;Search Service&lt;/font&gt;" style="rounded=1;whiteSpace=wrap;html=1;hachureGap=4;strokeColor=default;align=center;verticalAlign=middle;fontFamily=Architects Daughter;fontSource=https%3A%2F%2Ffonts.googleapis.com%2Fcss%3Ffamily%3DArchitects%2BDaughter;fontSize=12;fontColor=default;labelBackgroundColor=default;fillColor=default;" vertex="1" parent="1">
          <mxGeometry x="358" y="372" width="107" height="35" as="geometry" />
        </mxCell>
        <mxCell id="dT6RQ6lJ1hllBTWCgssA-46" value="" style="group;" vertex="1" connectable="0" parent="1">
          <mxGeometry x="367" y="512" width="90" height="80" as="geometry" />
        </mxCell>
        <mxCell id="dT6RQ6lJ1hllBTWCgssA-44" value="" style="shadow=0;dashed=0;html=1;labelPosition=center;verticalLabelPosition=bottom;verticalAlign=top;align=center;outlineConnect=0;shape=mxgraph.veeam.3d.datastore_volume;rounded=1;hachureGap=4;strokeColor=default;fontFamily=Architects Daughter;fontSource=https%3A%2F%2Ffonts.googleapis.com%2Fcss%3Ffamily%3DArchitects%2BDaughter;fontSize=12;fontColor=default;labelBackgroundColor=default;fillColor=default;" vertex="1" parent="dT6RQ6lJ1hllBTWCgssA-46">
          <mxGeometry x="7.5" width="70" height="44" as="geometry" />
        </mxCell>
        <mxCell id="dT6RQ6lJ1hllBTWCgssA-45" value="&lt;font face=&quot;Verdana&quot;&gt;Elastic Search Cluster&lt;/font&gt;" style="text;html=1;align=center;verticalAlign=middle;whiteSpace=wrap;rounded=0;fontFamily=Architects Daughter;fontSource=https%3A%2F%2Ffonts.googleapis.com%2Fcss%3Ffamily%3DArchitects%2BDaughter;fontSize=12;fontColor=default;labelBackgroundColor=default;" vertex="1" parent="dT6RQ6lJ1hllBTWCgssA-46">
          <mxGeometry y="50" width="90" height="30" as="geometry" />
        </mxCell>
        <mxCell id="dT6RQ6lJ1hllBTWCgssA-47" value="" style="endArrow=classic;html=1;rounded=0;hachureGap=4;strokeColor=default;align=center;verticalAlign=middle;fontFamily=Architects Daughter;fontSource=https%3A%2F%2Ffonts.googleapis.com%2Fcss%3Ffamily%3DArchitects%2BDaughter;fontSize=12;fontColor=default;labelBackgroundColor=default;flowAnimation=1;" edge="1" parent="1">
          <mxGeometry width="50" height="50" relative="1" as="geometry">
            <mxPoint x="411" y="406" as="sourcePoint" />
            <mxPoint x="410" y="510" as="targetPoint" />
          </mxGeometry>
        </mxCell>
        <mxCell id="dT6RQ6lJ1hllBTWCgssA-48" value="" style="group" vertex="1" connectable="0" parent="1">
          <mxGeometry x="686" y="436" width="130" height="70" as="geometry" />
        </mxCell>
        <mxCell id="dT6RQ6lJ1hllBTWCgssA-49" value="" style="shadow=0;dashed=0;html=1;labelPosition=center;verticalLabelPosition=bottom;verticalAlign=top;align=center;outlineConnect=0;shape=mxgraph.veeam.3d.medium_datastore;rounded=1;hachureGap=4;strokeColor=default;fontFamily=Architects Daughter;fontSource=https%3A%2F%2Ffonts.googleapis.com%2Fcss%3Ffamily%3DArchitects%2BDaughter;fontSize=12;labelBackgroundColor=default;fillColor=#0000CC;rotation=-90;" vertex="1" parent="dT6RQ6lJ1hllBTWCgssA-48">
          <mxGeometry x="17" y="34.5" width="44" height="127" as="geometry" />
        </mxCell>
        <mxCell id="dT6RQ6lJ1hllBTWCgssA-50" value="&lt;font face=&quot;Verdana&quot;&gt;Kafka&lt;/font&gt;" style="text;html=1;align=center;verticalAlign=middle;resizable=0;points=[];autosize=1;strokeColor=none;fillColor=none;fontFamily=Architects Daughter;fontSource=https%3A%2F%2Ffonts.googleapis.com%2Fcss%3Ffamily%3DArchitects%2BDaughter;fontSize=12;fontColor=default;labelBackgroundColor=default;" vertex="1" parent="dT6RQ6lJ1hllBTWCgssA-48">
          <mxGeometry x="35" y="116" width="60" height="30" as="geometry" />
        </mxCell>
        <mxCell id="dT6RQ6lJ1hllBTWCgssA-51" value="&lt;font face=&quot;Verdana&quot;&gt;Consumer&lt;/font&gt;" style="rounded=1;whiteSpace=wrap;html=1;hachureGap=4;strokeColor=default;align=center;verticalAlign=middle;fontFamily=Architects Daughter;fontSource=https%3A%2F%2Ffonts.googleapis.com%2Fcss%3Ffamily%3DArchitects%2BDaughter;fontSize=12;fontColor=default;labelBackgroundColor=default;fillColor=default;" vertex="1" parent="1">
          <mxGeometry x="502" y="516" width="90" height="40" as="geometry" />
        </mxCell>
        <mxCell id="dT6RQ6lJ1hllBTWCgssA-52" value="" style="endArrow=classic;html=1;rounded=0;hachureGap=4;strokeColor=default;align=center;verticalAlign=middle;fontFamily=Architects Daughter;fontSource=https%3A%2F%2Ffonts.googleapis.com%2Fcss%3Ffamily%3DArchitects%2BDaughter;fontSize=12;fontColor=default;labelBackgroundColor=default;flowAnimation=1;" edge="1" parent="1">
          <mxGeometry width="50" height="50" relative="1" as="geometry">
            <mxPoint x="497" y="533.58" as="sourcePoint" />
            <mxPoint x="447" y="533.58" as="targetPoint" />
          </mxGeometry>
        </mxCell>
        <mxCell id="dT6RQ6lJ1hllBTWCgssA-53" value="" style="endArrow=none;html=1;rounded=0;hachureGap=4;strokeColor=default;align=center;verticalAlign=middle;fontFamily=Architects Daughter;fontSource=https%3A%2F%2Ffonts.googleapis.com%2Fcss%3Ffamily%3DArchitects%2BDaughter;fontSize=12;fontColor=default;labelBackgroundColor=default;flowAnimation=1;" edge="1" parent="1">
          <mxGeometry width="50" height="50" relative="1" as="geometry">
            <mxPoint x="592" y="540" as="sourcePoint" />
            <mxPoint x="658" y="540" as="targetPoint" />
          </mxGeometry>
        </mxCell>
        <mxCell id="dT6RQ6lJ1hllBTWCgssA-55" value="&lt;font face=&quot;Verdana&quot;&gt;Airline Service&lt;/font&gt;" style="rounded=1;whiteSpace=wrap;html=1;hachureGap=4;strokeColor=default;align=center;verticalAlign=middle;fontFamily=Architects Daughter;fontSource=https%3A%2F%2Ffonts.googleapis.com%2Fcss%3Ffamily%3DArchitects%2BDaughter;fontSize=12;fontColor=default;labelBackgroundColor=default;fillColor=default;" vertex="1" parent="1">
          <mxGeometry x="645" y="353" width="120" height="40" as="geometry" />
        </mxCell>
        <mxCell id="dT6RQ6lJ1hllBTWCgssA-56" value="" style="endArrow=classic;html=1;rounded=0;hachureGap=4;strokeColor=default;align=center;verticalAlign=middle;fontFamily=Architects Daughter;fontSource=https%3A%2F%2Ffonts.googleapis.com%2Fcss%3Ffamily%3DArchitects%2BDaughter;fontSize=12;fontColor=default;labelBackgroundColor=default;flowAnimation=1;" edge="1" parent="1">
          <mxGeometry width="50" height="50" relative="1" as="geometry">
            <mxPoint x="720.41" y="397" as="sourcePoint" />
            <mxPoint x="720" y="510" as="targetPoint" />
          </mxGeometry>
        </mxCell>
        <mxCell id="dT6RQ6lJ1hllBTWCgssA-58" value="&lt;font face=&quot;Verdana&quot;&gt;User Service&lt;/font&gt;" style="rounded=1;whiteSpace=wrap;html=1;hachureGap=4;strokeColor=default;align=center;verticalAlign=middle;fontFamily=Architects Daughter;fontSource=https%3A%2F%2Ffonts.googleapis.com%2Fcss%3Ffamily%3DArchitects%2BDaughter;fontSize=12;fontColor=default;labelBackgroundColor=default;fillColor=default;" vertex="1" parent="1">
          <mxGeometry x="494" y="372" width="107" height="35" as="geometry" />
        </mxCell>
        <mxCell id="dT6RQ6lJ1hllBTWCgssA-59" value="" style="endArrow=classic;html=1;rounded=0;hachureGap=4;strokeColor=default;align=center;verticalAlign=middle;fontFamily=Architects Daughter;fontSource=https%3A%2F%2Ffonts.googleapis.com%2Fcss%3Ffamily%3DArchitects%2BDaughter;fontSize=12;fontColor=default;labelBackgroundColor=default;flowAnimation=1;" edge="1" parent="1">
          <mxGeometry width="50" height="50" relative="1" as="geometry">
            <mxPoint x="460" y="320" as="sourcePoint" />
            <mxPoint x="540" y="370" as="targetPoint" />
          </mxGeometry>
        </mxCell>
        <mxCell id="dT6RQ6lJ1hllBTWCgssA-60" value="" style="shadow=0;dashed=0;html=1;labelPosition=center;verticalLabelPosition=bottom;verticalAlign=top;align=center;outlineConnect=0;shape=mxgraph.veeam.3d.medium_datastore;rounded=1;hachureGap=4;strokeColor=default;fontFamily=Architects Daughter;fontSource=https%3A%2F%2Ffonts.googleapis.com%2Fcss%3Ffamily%3DArchitects%2BDaughter;fontSize=12;fontColor=default;labelBackgroundColor=default;fillColor=default;" vertex="1" parent="1">
          <mxGeometry x="582" y="397" width="47" height="40" as="geometry" />
        </mxCell>
        <mxCell id="dT6RQ6lJ1hllBTWCgssA-61" value="" style="shadow=0;dashed=0;html=1;labelPosition=center;verticalLabelPosition=bottom;verticalAlign=top;align=center;outlineConnect=0;shape=mxgraph.veeam.3d.medium_datastore;rounded=1;hachureGap=4;strokeColor=default;fontFamily=Architects Daughter;fontSource=https%3A%2F%2Ffonts.googleapis.com%2Fcss%3Ffamily%3DArchitects%2BDaughter;fontSize=12;fontColor=default;labelBackgroundColor=default;fillColor=default;" vertex="1" parent="1">
          <mxGeometry x="740" y="380" width="47" height="40" as="geometry" />
        </mxCell>
        <mxCell id="dT6RQ6lJ1hllBTWCgssA-62" value="" style="endArrow=classic;html=1;rounded=0;hachureGap=4;strokeColor=default;align=center;verticalAlign=middle;fontFamily=Architects Daughter;fontSource=https%3A%2F%2Ffonts.googleapis.com%2Fcss%3Ffamily%3DArchitects%2BDaughter;fontSize=12;fontColor=default;labelBackgroundColor=default;flowAnimation=1;" edge="1" parent="1">
          <mxGeometry width="50" height="50" relative="1" as="geometry">
            <mxPoint x="460" y="310" as="sourcePoint" />
            <mxPoint x="700" y="350" as="targetPoint" />
            <Array as="points">
              <mxPoint x="700" y="310" />
            </Array>
          </mxGeometry>
        </mxCell>
        <mxCell id="dT6RQ6lJ1hllBTWCgssA-66" value="" style="group" vertex="1" connectable="0" parent="1">
          <mxGeometry x="494" y="435" width="90" height="68" as="geometry" />
        </mxCell>
        <mxCell id="dT6RQ6lJ1hllBTWCgssA-64" value="" style="image;sketch=0;aspect=fixed;html=1;points=[];align=center;fontSize=12;image=img/lib/mscae/Cache_including_Redis.svg;rounded=1;hachureGap=4;strokeColor=default;verticalAlign=middle;fontFamily=Architects Daughter;fontSource=https%3A%2F%2Ffonts.googleapis.com%2Fcss%3Ffamily%3DArchitects%2BDaughter;fontColor=default;labelBackgroundColor=default;fillColor=default;" vertex="1" parent="dT6RQ6lJ1hllBTWCgssA-66">
          <mxGeometry x="16" width="50" height="50" as="geometry" />
        </mxCell>
        <mxCell id="dT6RQ6lJ1hllBTWCgssA-65" value="&lt;font face=&quot;Verdana&quot;&gt;Redis Cache&lt;/font&gt;" style="text;html=1;align=center;verticalAlign=middle;whiteSpace=wrap;rounded=0;fontFamily=Architects Daughter;fontSource=https%3A%2F%2Ffonts.googleapis.com%2Fcss%3Ffamily%3DArchitects%2BDaughter;fontSize=12;fontColor=default;labelBackgroundColor=default;" vertex="1" parent="dT6RQ6lJ1hllBTWCgssA-66">
          <mxGeometry y="48" width="90" height="20" as="geometry" />
        </mxCell>
        <mxCell id="dT6RQ6lJ1hllBTWCgssA-67" value="" style="endArrow=classic;startArrow=classic;html=1;rounded=0;hachureGap=4;strokeColor=default;align=center;verticalAlign=middle;fontFamily=Architects Daughter;fontSource=https%3A%2F%2Ffonts.googleapis.com%2Fcss%3Ffamily%3DArchitects%2BDaughter;fontSize=12;fontColor=default;labelBackgroundColor=default;flowAnimation=1;" edge="1" parent="1">
          <mxGeometry width="50" height="50" relative="1" as="geometry">
            <mxPoint x="530" y="435" as="sourcePoint" />
            <mxPoint x="530" y="405" as="targetPoint" />
          </mxGeometry>
        </mxCell>
        <mxCell id="dT6RQ6lJ1hllBTWCgssA-70" value="" style="group" vertex="1" connectable="0" parent="1">
          <mxGeometry x="634" y="427" width="90" height="68" as="geometry" />
        </mxCell>
        <mxCell id="dT6RQ6lJ1hllBTWCgssA-71" value="" style="image;sketch=0;aspect=fixed;html=1;points=[];align=center;fontSize=12;image=img/lib/mscae/Cache_including_Redis.svg;rounded=1;hachureGap=4;strokeColor=default;verticalAlign=middle;fontFamily=Architects Daughter;fontSource=https%3A%2F%2Ffonts.googleapis.com%2Fcss%3Ffamily%3DArchitects%2BDaughter;fontColor=default;labelBackgroundColor=default;fillColor=default;" vertex="1" parent="dT6RQ6lJ1hllBTWCgssA-70">
          <mxGeometry x="16" width="50" height="50" as="geometry" />
        </mxCell>
        <mxCell id="dT6RQ6lJ1hllBTWCgssA-72" value="&lt;font face=&quot;Verdana&quot;&gt;Redis Cache&lt;/font&gt;" style="text;html=1;align=center;verticalAlign=middle;whiteSpace=wrap;rounded=0;fontFamily=Architects Daughter;fontSource=https%3A%2F%2Ffonts.googleapis.com%2Fcss%3Ffamily%3DArchitects%2BDaughter;fontSize=12;fontColor=default;labelBackgroundColor=default;" vertex="1" parent="dT6RQ6lJ1hllBTWCgssA-70">
          <mxGeometry y="48" width="90" height="20" as="geometry" />
        </mxCell>
        <mxCell id="dT6RQ6lJ1hllBTWCgssA-73" value="" style="endArrow=classic;startArrow=classic;html=1;rounded=0;hachureGap=4;strokeColor=default;align=center;verticalAlign=middle;fontFamily=Architects Daughter;fontSource=https%3A%2F%2Ffonts.googleapis.com%2Fcss%3Ffamily%3DArchitects%2BDaughter;fontSize=12;fontColor=default;labelBackgroundColor=default;flowAnimation=1;" edge="1" parent="1">
          <mxGeometry width="50" height="50" relative="1" as="geometry">
            <mxPoint x="670" y="427" as="sourcePoint" />
            <mxPoint x="670" y="397" as="targetPoint" />
          </mxGeometry>
        </mxCell>
      </root>
    </mxGraphModel>
  </diagram>
</mxfile>
